<svg xmlns="http://www.w3.org/2000/svg" viewBox="0 0 143.25 140.83">
  <defs>
    <style>
      .cls-1 {
        fill: #d6d6d6;
      }
    </style>
  </defs>
  <title>FTS SHIRT NO BACKGROUNDAsset 3graphic</title>
  <g id="Layer_2" data-name="Layer 2">
    <g id="aa03ddf9-f8f2-4819-a4ce-be9b0a220741">
      <g>
        <rect class="cls-1" x="64.09" y="22" width="22" height="103.73" transform="translate(-30.21 76.1) rotate(-45.74)"/>
        <path class="cls-1" d="M105.49,103.47a22,22,0,1,0,31.11-.4A22,22,0,0,0,105.49,103.47ZM128,125.41a9.43,9.43,0,1,1-.17-13.33,9.43,9.43,0,0,1,.17,13.33Z"/>
        <path class="cls-1" d="M23,.25,33.48,10.76l-5.07,18L9.9,33.3.19,23.54A26.71,26.71,0,1,0,29.89.19,27.08,27.08,0,0,0,23,.25Z"/>
      </g>
    </g>
  </g>
</svg>
