<svg width="142" height="722" viewBox="0 0 142 722" fill="none" xmlns="http://www.w3.org/2000/svg">
<path d="M5.432 721.447L5.43199 663.046C5.43199 648.556 8.95999 637.279 16.016 629.215C22.946 621.151 32.459 617.119 44.555 617.119C56.651 617.119 66.227 621.214 73.283 629.404C80.339 637.468 83.867 648.682 83.867 663.046L83.867 697.066L140 697.066L140 721.447L5.432 721.447ZM64.967 665.881C64.967 657.439 63.266 651.076 59.864 646.792C56.336 642.382 51.296 640.177 44.744 640.177C38.066 640.177 33.026 642.319 29.624 646.603C26.096 650.887 24.332 657.313 24.332 665.881L24.332 697.066L64.967 697.066L64.967 665.881ZM42.287 547.709C42.287 544.055 42.791 540.905 43.799 538.259L65.345 538.448C63.707 542.48 62.888 546.638 62.888 550.922C62.888 558.986 65.219 565.16 69.881 569.444C74.543 573.602 80.717 575.681 88.403 575.681L140 575.681L140 599.117L71.582 599.117C61.502 599.117 52.493 599.621 44.555 600.629L44.555 578.516L61.376 576.626C55.202 574.232 50.477 570.452 47.201 565.286C43.925 560.12 42.287 554.261 42.287 547.709ZM141.512 483.669C141.512 493.371 139.496 501.939 135.464 509.373C131.432 516.681 125.699 522.351 118.265 526.383C110.705 530.289 101.885 532.242 91.805 532.242C81.725 532.242 72.968 530.289 65.534 526.383C57.974 522.351 52.178 516.681 48.146 509.373C44.114 501.939 42.098 493.371 42.098 483.669C42.098 474.093 44.114 465.651 48.146 458.343C52.178 451.035 57.974 445.428 65.534 441.522C72.968 437.49 81.725 435.474 91.805 435.474C101.885 435.474 110.705 437.49 118.265 441.522C125.699 445.428 131.432 451.035 135.464 458.343C139.496 465.651 141.512 474.093 141.512 483.669ZM122.99 483.858C122.99 475.794 120.407 469.683 115.241 465.525C109.949 461.241 102.137 459.099 91.805 459.099C81.599 459.099 73.85 461.241 68.558 465.525C63.14 469.809 60.431 475.857 60.431 483.669C60.431 491.607 63.14 497.718 68.558 502.002C73.85 506.286 81.599 508.428 91.805 508.428C102.137 508.428 109.949 506.349 115.241 502.191C120.407 497.907 122.99 491.796 122.99 483.858ZM42.098 360.668C42.098 352.352 44.177 345.044 48.335 338.744C52.367 332.318 58.1 327.341 65.534 323.813C72.968 320.285 81.599 318.521 91.427 318.521C101.255 318.521 110.012 320.348 117.698 324.002C125.258 327.53 131.117 332.507 135.275 338.933C139.433 345.233 141.512 352.478 141.512 360.668C141.512 367.724 140 374.024 136.976 379.568C133.952 384.986 129.731 389.081 124.313 391.853L140 391.853L140 415.1L0.895974 415.1L0.895973 391.664L58.919 391.664C53.627 388.766 49.532 384.608 46.634 379.19C43.61 373.772 42.098 367.598 42.098 360.668ZM122.99 366.905C122.99 359.093 120.218 353.045 114.674 348.761C109.13 344.477 101.381 342.335 91.427 342.335C81.599 342.335 74.039 344.477 68.747 348.761C63.329 353.045 60.62 359.156 60.62 367.094C60.62 375.032 63.329 381.143 68.747 385.427C74.165 389.711 81.851 391.853 91.805 391.853C101.885 391.853 109.634 389.711 115.052 385.427C120.344 381.143 122.99 374.969 122.99 366.905ZM0.895969 297.898L0.895968 274.462L140 274.462L140 297.898L0.895969 297.898ZM93.506 165.08L93.506 230.852C103.712 230.348 111.272 227.828 116.186 223.292C120.974 218.63 123.368 211.763 123.368 202.691C123.368 192.233 119.966 182.531 113.162 173.585L129.416 166.781C133.07 171.317 136.031 176.924 138.299 183.602C140.441 190.154 141.512 196.832 141.512 203.636C141.512 219.26 137.102 231.545 128.282 240.491C119.462 249.437 107.366 253.91 91.994 253.91C82.292 253.91 73.661 251.957 66.101 248.051C58.541 244.145 52.682 238.664 48.524 231.608C44.24 224.552 42.098 216.551 42.098 207.605C42.098 194.501 46.382 184.169 54.95 176.609C63.392 168.923 75.047 165.08 89.915 165.08L93.506 165.08ZM59.108 207.038C59.108 213.338 60.998 218.504 64.778 222.536C68.432 226.442 73.787 228.962 80.843 230.096L80.843 185.681C73.661 186.437 68.243 188.642 64.589 192.296C60.935 195.824 59.108 200.738 59.108 207.038ZM42.098 32.4298C42.098 21.5938 45.374 13.5298 51.926 8.23777C58.352 2.94577 68.18 0.299766 81.41 0.299766L140 0.299763L140 23.9248L82.166 23.9248C74.606 23.9248 69.188 25.1848 65.912 27.7048C62.51 30.0988 60.809 34.1308 60.809 39.8008C60.809 46.3528 63.14 51.5188 67.802 55.2988C72.338 58.9528 78.638 60.7798 86.702 60.7798L140 60.7798L140 84.4048L82.166 84.4048C74.732 84.4048 69.314 85.7278 65.912 88.3738C62.51 90.8938 60.809 94.9258 60.809 100.47C60.809 107.022 63.14 112.188 67.802 115.968C72.338 119.748 78.638 121.638 86.702 121.638L140 121.638L140 145.074L71.582 145.074C61.502 145.074 52.493 145.578 44.555 146.586L44.555 124.473L59.675 122.772C54.005 120 49.658 116.031 46.634 110.865C43.61 105.573 42.098 99.5248 42.098 92.7208C42.098 78.1048 48.146 68.5918 60.242 64.1818C54.572 61.1578 50.162 56.8738 47.012 51.3298C43.736 45.6598 42.098 39.3598 42.098 32.4298Z" fill="#F7F7F7" fill-opacity="0.13"/>
</svg>
