<svg width="141" height="722" viewBox="0 0 141 722" fill="none" xmlns="http://www.w3.org/2000/svg">
<path d="M0.0509504 52.102C0.0509508 41.77 1.43695 32.068 4.20895 22.996C6.98095 14.05 10.95 6.42699 16.116 0.126988L33.882 8.44299C28.968 14.995 25.314 21.799 22.92 28.855C20.652 36.037 19.518 43.849 19.518 52.291C19.518 61.615 21.156 68.797 24.432 73.837C27.708 79.003 32.307 81.586 38.2289 81.586C43.269 81.586 47.112 79.192 49.758 74.404C52.53 69.742 55.113 61.993 57.507 51.157C61.161 34.273 65.886 21.988 71.682 14.302C77.478 6.61599 85.92 2.77299 97.008 2.77299C104.946 2.77299 112.002 4.915 118.176 9.199C124.35 13.483 129.201 19.531 132.729 27.343C136.257 35.281 138.021 44.416 138.021 54.748C138.021 64.198 136.572 73.144 133.674 81.586C130.902 90.154 126.996 97.147 121.956 102.565L104.19 94.438C113.766 82.468 118.554 69.238 118.554 54.748C118.554 46.054 116.727 39.187 113.073 34.147C109.545 29.107 104.694 26.587 98.52 26.587C93.228 26.587 89.196 28.792 86.424 33.202C83.652 37.738 81.069 45.424 78.675 56.26C76.029 67.474 73.131 76.609 69.981 83.665C66.957 90.721 62.988 96.139 58.0739 99.919C53.286 103.699 47.238 105.589 39.9299 105.589C31.866 105.589 24.8099 103.447 18.7619 99.163C12.8399 94.879 8.24095 88.705 4.96495 80.641C1.68895 72.577 0.0509499 63.064 0.0509504 52.102ZM0.239945 169.765C0.239946 160.063 2.25595 151.495 6.28795 144.061C10.3199 136.753 16.0529 131.083 23.4869 127.051C31.0469 123.145 39.867 121.192 49.947 121.192C60.027 121.192 68.7839 123.145 76.218 127.051C83.778 131.083 89.574 136.753 93.606 144.061C97.6379 151.495 99.6539 160.063 99.6539 169.765C99.6539 179.341 97.6379 187.783 93.606 195.091C89.5739 202.399 83.7779 208.006 76.2179 211.912C68.7839 215.944 60.0269 217.96 49.9469 217.96C39.8669 217.96 31.0469 215.944 23.4869 211.912C16.0529 208.006 10.3199 202.399 6.28794 195.091C2.25594 187.783 0.239945 179.341 0.239945 169.765ZM18.7619 169.576C18.7619 177.64 21.3449 183.751 26.5109 187.909C31.8029 192.193 39.6149 194.335 49.9469 194.335C60.1529 194.335 67.9019 192.193 73.1939 187.909C78.612 183.625 81.321 177.577 81.321 169.765C81.321 161.827 78.612 155.716 73.194 151.432C67.902 147.148 60.153 145.006 49.947 145.006C39.6149 145.006 31.8029 147.085 26.5109 151.243C21.3449 155.527 18.7619 161.638 18.7619 169.576ZM140.856 238.333L140.856 261.769L1.75194 261.769L1.75194 238.333L140.856 238.333ZM97.1969 374.554L1.75194 374.554L1.75194 351.496L16.4939 351.496C11.2019 348.472 7.16994 344.44 4.39794 339.4C1.62594 334.36 0.239938 328.564 0.239939 322.012C0.23994 298.702 13.3439 287.047 39.5519 287.047L97.1969 287.047L97.1969 310.483L39.3629 310.483C32.4329 310.483 27.3299 311.869 24.0539 314.641C20.7779 317.539 19.1399 321.949 19.1399 327.871C19.1399 334.801 21.4079 340.345 25.9439 344.503C30.4799 348.661 36.5279 350.74 44.0879 350.74L97.1969 350.74L97.1969 374.554ZM79.4309 430.253L36.7169 430.253C25.5029 430.253 19.8959 435.482 19.8959 445.94C19.8959 448.838 20.3999 451.988 21.4079 455.39L2.69693 455.39C1.18493 451.232 0.428933 446.192 0.428933 440.27C0.428934 429.434 3.45293 421.118 9.50093 415.322C15.5489 409.526 24.2429 406.628 35.5829 406.628L79.4309 406.628L79.4309 388.295L97.1969 388.295L97.1969 406.628L120.444 406.628L128.382 430.253L97.1969 430.253L97.1969 455.579L79.4309 455.579L79.4309 430.253ZM97.1969 471.815L97.1969 495.251L1.75193 495.251L1.75193 471.815L97.1969 471.815ZM140.478 496.574L117.231 496.574L117.231 470.303L140.478 470.303L140.478 496.574ZM0.239928 564.376C0.239928 554.674 2.25593 546.106 6.28793 538.672C10.3199 531.364 16.0529 525.694 23.4869 521.662C31.0469 517.756 39.8669 515.803 49.9469 515.803C60.0269 515.803 68.7839 517.756 76.2179 521.662C83.7779 525.694 89.5739 531.364 93.6059 538.672C97.6379 546.106 99.6539 554.674 99.6539 564.376C99.6539 573.952 97.6379 582.394 93.6059 589.702C89.5739 597.01 83.7779 602.617 76.2179 606.523C68.7839 610.555 60.0269 612.571 49.9469 612.571C39.8669 612.571 31.0469 610.555 23.4869 606.523C16.0529 602.617 10.3199 597.01 6.28793 589.702C2.25593 582.394 0.239928 573.952 0.239928 564.376ZM18.7619 564.187C18.7619 572.251 21.3449 578.362 26.5109 582.52C31.8029 586.804 39.6149 588.946 49.9469 588.946C60.1529 588.946 67.9019 586.804 73.1939 582.52C78.6119 578.236 81.3209 572.188 81.3209 564.376C81.3209 556.438 78.6119 550.327 73.1939 546.043C67.9019 541.759 60.1529 539.617 49.9469 539.617C39.6149 539.617 31.8029 541.696 26.5109 545.854C21.3449 550.138 18.7619 556.249 18.7619 564.187ZM99.6539 687.566C99.6539 710.372 86.5499 721.775 60.3419 721.775L1.75192 721.775L1.75192 698.15L59.2079 698.15C66.7679 698.15 72.2489 696.701 75.6509 693.803C79.1789 690.905 80.9429 686.432 80.9429 680.384C80.9429 673.202 78.6119 667.406 73.9499 662.996C69.4139 658.586 63.3659 656.381 55.8059 656.381L1.75192 656.381L1.75193 632.945L70.1699 632.945C80.2499 632.945 89.2589 632.441 97.1969 631.433L97.1969 653.546L81.5099 655.247C87.3059 658.523 91.7789 662.933 94.9289 668.477C98.0789 674.147 99.6539 680.51 99.6539 687.566Z" fill="#232428" fill-opacity="0.08"/>
</svg>
